<svg viewBox="0 0 640 480" xmlns="http://www.w3.org/2000/svg" font-family="Inter,Arial,sans-serif"><defs><linearGradient id="bg" x1="0" y1="0" x2="1" y2="1"><stop offset="0" stop-color="#eef2f7"/><stop offset="1" stop-color="#e0efe9"/></linearGradient><linearGradient id="gr" x1="0" y1="0" x2="1" y2="1"><stop offset="0" stop-color="#25a184"/><stop offset="1" stop-color="#1f8a70"/></linearGradient><linearGradient id="go" x1="0" y1="0" x2="1" y2="1"><stop offset="0" stop-color="#d8b673"/><stop offset="1" stop-color="#c8a45c"/></linearGradient><filter id="s" x="-30%" y="-30%" width="160%" height="160%"><feDropShadow dx="0" dy="14" stdDeviation="20" flood-color="#0b1020" flood-opacity="0.14"/></filter></defs><rect width="640" height="480" rx="28" fill="url(#bg)"/><circle cx="540" cy="80" r="120" fill="#c8a45c" opacity="0.10"/><circle cx="90" cy="420" r="130" fill="#1f8a70" opacity="0.10"/><path d="M40 380 L150 320 L260 340 L370 240 L480 200 L580 130" stroke="#c8a45c" stroke-width="2.5" stroke-linecap="round" opacity="0.35" fill="none" stroke-dasharray="4 8"/><g filter="url(#s)"><rect x="56" y="56" width="250" height="168" rx="20" fill="#fff"/><rect x="76" y="78" width="38" height="38" rx="11" fill="url(#gr)"/><path d="M84 100 L95 91 L106 100 M87 98 V110 H103 V98" stroke="#fff" stroke-width="2.2" fill="none" stroke-linecap="round" stroke-linejoin="round"/><text x="126" y="102" font-size="17" font-weight="700" fill="#0b1020">Mortgage</text><text x="76" y="140" font-size="12" fill="#5c6478">Home price</text><text x="286" y="140" font-size="14" font-weight="700" fill="#1f8a70" text-anchor="end">$350,000</text><rect x="76" y="158" width="210" height="44" rx="12" fill="url(#gr)"/><text x="94" y="186" font-size="19" font-weight="800" fill="#fff">$1,568 / mo</text></g><g filter="url(#s)"><rect x="340" y="150" width="210" height="180" rx="20" fill="#fff"/><rect x="360" y="172" width="38" height="38" rx="11" fill="#e2574c"/><path d="M379 200 C373 195 369 191 369 187 C369 185 371 183 373 183 C375 183 377 185 379 187 C381 185 383 183 385 183 C387 183 389 185 389 187 C389 191 385 195 379 200 Z" fill="#fff"/><text x="410" y="196" font-size="17" font-weight="700" fill="#0b1020">BMI</text><text x="360" y="258" font-size="46" font-weight="800" fill="#1f8a70">23.5</text><rect x="360" y="276" width="170" height="11" rx="6" fill="#eef1f5"/><rect x="360" y="276" width="92" height="11" rx="6" fill="url(#gr)"/><text x="360" y="308" font-size="12" fill="#5c6478">Healthy weight</text></g><g filter="url(#s)"><rect x="150" y="256" width="220" height="164" rx="20" fill="#fff"/><rect x="170" y="278" width="38" height="38" rx="11" fill="url(#go)"/><path d="M177 304 V296 M184 304 V290 M191 304 V295 M198 304 V286" stroke="#fff" stroke-width="3" stroke-linecap="round"/><text x="220" y="302" font-size="17" font-weight="700" fill="#0b1020">Compound</text><text x="170" y="340" font-size="12" fill="#5c6478">$10k + $200/mo · 20y</text><rect x="170" y="356" width="180" height="46" rx="12" fill="url(#go)"/><text x="188" y="386" font-size="22" font-weight="800" fill="#0b1020">$142,611</text></g><g filter="url(#s)"><circle cx="500" cy="380" r="28" fill="url(#go)"/><text x="500" y="390" font-size="24" font-weight="800" fill="#0b1020" text-anchor="middle">$</text></g></svg>